<?xml version="1.0" encoding="utf-8"?><svg xmlns="http://www.w3.org/2000/svg" xmlns:xlink="http://www.w3.org/1999/xlink"><symbol viewBox="0 0 23 10" id="arrow-left" xmlns="http://www.w3.org/2000/svg"><path d="M21.924 5.424a.6.6 0 0 0 0-.848L18.106.757a.6.6 0 1 0-.849.849L20.651 5l-3.394 3.394a.6.6 0 1 0 .849.849l3.818-3.819ZM.5 5.6h21V4.4H.5v1.2Z"/></symbol><symbol viewBox="0 0 40 40" id="arrow-left2" xmlns="http://www.w3.org/2000/svg"><path d="M7.576 20.424a.6.6 0 0 1 0-.848l3.818-3.819a.6.6 0 1 1 .849.849L8.849 20l3.394 3.394a.6.6 0 1 1-.849.849l-3.818-3.819ZM32 20.6H8v-1.2h24v1.2Z"/></symbol><symbol viewBox="0 0 40 40" id="arrow-right2" xmlns="http://www.w3.org/2000/svg"><rect x=".5" y=".5" width="39" height="39" rx="19.5"/><path d="M32.424 20.424a.6.6 0 0 0 0-.848l-3.818-3.819a.6.6 0 1 0-.849.849L31.151 20l-3.394 3.394a.6.6 0 1 0 .849.849l3.818-3.819ZM8 20.6h24v-1.2H8v1.2Z"/></symbol><symbol viewBox="0 0 22 24" id="basket" xmlns="http://www.w3.org/2000/svg"><g clip-path="url(#da)"><path d="M10.363 18.443a2.046 2.046 0 0 0-2.045 2.042 2.046 2.046 0 0 0 4.09 0 2.046 2.046 0 0 0-2.045-2.042Zm6.134 0a2.046 2.046 0 0 0-2.045 2.042 2.046 2.046 0 0 0 4.089 0 2.046 2.046 0 0 0-2.044-2.042Zm3.978-8.199L7.413 6.891a.614.614 0 0 0-.75.73L8.67 16.4h-.786L5.482 5.895a.613.613 0 0 0-.474-.464l-4.27-.882A.614.614 0 0 0 .489 5.75l3.885.802L6.797 17.15a.613.613 0 0 0 .598.477h12.07a.615.615 0 0 0 .607-.53l.858-6.175a.613.613 0 0 0-.455-.678Zm-8.14 3.91a.613.613 0 0 1-1.227 0v-2.696a.613.613 0 0 1 1.227 0v2.696Zm2.625 0a.613.613 0 0 1-1.227 0v-1.88a.613.613 0 0 1 1.227 0v1.88Zm2.625 0a.613.613 0 0 1-1.227 0v-1.226a.613.613 0 0 1 1.227 0v1.226Z"/></g><path fill-rule="evenodd" clip-rule="evenodd" d="M16.268 4.568a2.996 2.996 0 0 0-1.693-.523c-.627 0-1.21.193-1.693.523-.28-.843-.492-1.752-.492-2.383C12.39.98 13.37 0 14.575 0s2.185.98 2.185 2.185c0 .631-.212 1.54-.492 2.383Zm-4.722 2.274.024.006v-.011l-.024.005Zm4.972 1.217c-1.333-.33-2.766-.681-4.129-1.013a2.185 2.185 0 1 1 4.129 1.013Zm4.436 1.103c-.866-.217-2.155-.538-3.618-.9a2.995 2.995 0 0 0 .243-1.425c.87.18 1.762.45 2.308.765.596.344.969.928 1.067 1.56ZM9.869 6.439c-.36-.086-.706-.167-1.03-.243a2.19 2.19 0 0 1-.376-2.667 2.188 2.188 0 0 1 3.147-.7c.098.738.338 1.599.61 2.353a3.01 3.01 0 0 0-.449.774c-.628.113-1.305.278-1.902.483Zm10.124.075a3.43 3.43 0 0 1-.217.114c-.696-.295-1.587-.526-2.397-.672a3.01 3.01 0 0 0-.449-.774c.262-.727.494-1.553.599-2.273.095-.067.189-.128.278-.18a2.188 2.188 0 0 1 2.986.8 2.188 2.188 0 0 1-.8 2.985Z"/><defs><clipPath id="da"><path transform="translate(0 3.064)" d="M0 0h20.936v20.936H0z"/></clipPath></defs></symbol><symbol viewBox="0 0 24 24" id="cart" xmlns="http://www.w3.org/2000/svg"><path d="M4 8.338s.002 5.042 0 7.973c0 .352 3.283 2.814 3.634 2.814h7.747c.39 0 3.627-2.462 3.627-2.814V8.338M4 8.307h15.008M8.22 7.87c.004-5.16 6.563-5.16 6.563-.001"/></symbol><symbol viewBox="0 0 344.96 344.96" id="check" xmlns="http://www.w3.org/2000/svg"><g data-name="Слой 2"><path class="fcls-1" d="m321.85 86.24-40-23.11-23.1-40H212.5L172.48 0l-40 23.11H86.24l-23.11 40-40 23.1v46.21L0 172.48l23.11 40v46.21l40 23.11 23.11 40h46.21l40 23.1 40-23.11h46.21l23.11-40 40-23.11V212.5l23.11-40-23.11-40V86.24ZM156.91 243.07a16.79 16.79 0 0 1-23.34 0l-50.45-50.44a16.19 16.19 0 0 1 0-22.89l13.35-13.35a16.19 16.19 0 0 1 22.89 0l25.87 25.87 80.34-80.35a16.19 16.19 0 0 1 22.89 0l13.35 13.35a16.19 16.19 0 0 1 0 22.89Z" data-name="Capa 1"/></g></symbol><symbol viewBox="0 0 12 12" id="close" xmlns="http://www.w3.org/2000/svg"><path d="M.923 0 12 11.077l-.923.923L0 .923.923 0Z"/><path d="M12 .923.923 12 0 11.077 11.077 0 12 .923Z"/></symbol><symbol viewBox="0 0 24 24" id="dzen" xmlns="http://www.w3.org/2000/svg"><path fill-rule="evenodd" clip-rule="evenodd" d="M22 12.107c-4.428.136-6.45.25-8.071 1.822-1.572 1.621-1.679 3.643-1.822 8.071 5.438-.057 9.836-4.455 9.893-9.893ZM11.893 22c-.136-4.428-.25-6.45-1.822-8.071C8.45 12.357 6.428 12.25 2 12.107c.057 5.438 4.455 9.836 9.893 9.893ZM22 11.893C21.943 6.455 17.545 2.057 12.107 2c.136 4.428.25 6.45 1.822 8.071 1.621 1.572 3.643 1.679 8.071 1.822ZM11.893 2C6.455 2.057 2.057 6.455 2 11.893c4.428-.136 6.45-.25 8.071-1.822C11.643 8.45 11.75 6.428 11.893 2Z"/></symbol><symbol viewBox="0 0 24 24" id="fb" xmlns="http://www.w3.org/2000/svg"><path d="M13.397 20.997v-8.196h2.765l.411-3.209h-3.176V7.548c0-.926.258-1.56 1.587-1.56h1.684v-2.86A22.108 22.108 0 0 0 14.201 3c-2.444 0-4.122 1.492-4.122 4.231v2.355H7.332v3.21h2.753v8.201h3.312Z"/></symbol><symbol viewBox="0 0 24 24" id="heart" xmlns="http://www.w3.org/2000/svg"><path d="M11.653 5.845 12 6.18l.347-.334c1.87-1.799 4.894-1.793 6.757.017a4.528 4.528 0 0 1 .018 6.522v.002l-6.077 5.902a1.5 1.5 0 0 1-2.09 0l-6.076-5.902-.001-.001a4.528 4.528 0 0 1 .018-6.523c1.863-1.81 4.887-1.816 6.757-.017Z"/></symbol><symbol viewBox="0 0 24 24" id="instagram" xmlns="http://www.w3.org/2000/svg"><path d="M11.999 7.377a4.624 4.624 0 1 0 0 9.248 4.624 4.624 0 0 0 0-9.248Zm0 7.627a3.004 3.004 0 1 1 0-6.008 3.004 3.004 0 0 1 0 6.008Zm4.807-6.719a1.078 1.078 0 1 0 0-2.156 1.078 1.078 0 0 0 0 2.156Z"/><path d="M20.533 6.11A4.605 4.605 0 0 0 17.9 3.48a6.607 6.607 0 0 0-2.186-.42c-.963-.042-1.268-.054-3.71-.054s-2.755 0-3.71.054a6.554 6.554 0 0 0-2.184.42 4.6 4.6 0 0 0-2.633 2.63 6.585 6.585 0 0 0-.419 2.186c-.043.962-.056 1.267-.056 3.71 0 2.442 0 2.753.056 3.71.015.748.156 1.486.419 2.187a4.61 4.61 0 0 0 2.634 2.632 6.583 6.583 0 0 0 2.185.45c.963.042 1.268.055 3.71.055s2.755 0 3.71-.055a6.616 6.616 0 0 0 2.186-.42 4.613 4.613 0 0 0 2.633-2.632c.263-.7.404-1.438.419-2.186.043-.962.056-1.267.056-3.71s0-2.753-.056-3.71a6.583 6.583 0 0 0-.421-2.217Zm-1.218 9.533a5.046 5.046 0 0 1-.311 1.688 2.987 2.987 0 0 1-1.712 1.71c-.535.2-1.1.305-1.67.312-.95.044-1.218.055-3.654.055-2.438 0-2.687 0-3.655-.055a4.961 4.961 0 0 1-1.67-.311 2.984 2.984 0 0 1-1.718-1.711 5.08 5.08 0 0 1-.311-1.67c-.043-.95-.053-1.217-.053-3.653 0-2.437 0-2.686.053-3.655a5.038 5.038 0 0 1 .311-1.687c.305-.79.93-1.41 1.719-1.712a5.01 5.01 0 0 1 1.669-.311c.95-.043 1.218-.055 3.655-.055s2.687 0 3.654.055a4.96 4.96 0 0 1 1.67.31 2.99 2.99 0 0 1 1.712 1.713 5.06 5.06 0 0 1 .311 1.669c.043.95.054 1.218.054 3.655 0 2.436 0 2.698-.043 3.654h-.011v-.001Z"/></symbol><symbol viewBox="0 0 24 24" id="profile" xmlns="http://www.w3.org/2000/svg"><path d="M5 19.072c0-9.045 14.067-9.044 14.067 0"/><circle cx="12.034" cy="8.019" r="3.519"/></symbol><symbol viewBox="0 0 24 24" id="search" xmlns="http://www.w3.org/2000/svg"><path d="M19.998 20a.5.5 0 1 0 .707-.707l-.707.707Zm-5-5 5 5 .707-.707-5-5-.707.707Z"/><circle cx="10.5" cy="10.5" r="6"/></symbol><symbol viewBox="0 0 24 24" id="telegram" xmlns="http://www.w3.org/2000/svg"><path d="M2.344 10.81C7.59 8.523 11.09 7.016 12.84 6.288c4.999-2.08 6.037-2.44 6.714-2.452.15-.003.482.034.698.209.182.148.232.347.256.487.024.14.054.46.03.709-.27 2.846-1.443 9.753-2.039 12.941-.252 1.349-.75 1.801-1.23 1.846-1.045.096-1.84-.691-2.852-1.355-1.584-1.038-2.479-1.685-4.017-2.698-1.777-1.171-.625-1.815.388-2.867.265-.275 4.87-4.464 4.96-4.844.011-.048.021-.225-.084-.319-.105-.093-.26-.061-.373-.036-.158.036-2.69 1.71-7.592 5.019-.718.493-1.37.733-1.952.72-.643-.013-1.88-.363-2.798-.662-1.127-.366-2.023-.56-1.945-1.182.04-.324.487-.656 1.339-.994Z"/></symbol><symbol viewBox="0 0 16 16" id="viber" xmlns="http://www.w3.org/2000/svg"><path d="M8 1.335c-1.071.013-3.374.19-4.662 1.37-.958.948-1.292 2.35-1.331 4.084-.033 1.728-.072 4.973 3.058 5.856v1.346s-.02.538.337.648c.438.14.688-.275 1.105-.72l.778-.879c2.142.178 3.782-.232 3.97-.293.435-.139 2.883-.451 3.283-3.696.41-3.351-.2-5.463-1.301-6.418h-.007c-.332-.306-1.668-1.279-4.652-1.29 0 0-.222-.014-.578-.008Zm.037.942a7.02 7.02 0 0 1 .488.011c2.527.007 3.732.767 4.017 1.023.927.794 1.405 2.697 1.055 5.495-.332 2.713-2.317 2.885-2.685 3.002-.156.05-1.6.406-3.42.289 0 0-1.356 1.634-1.78 2.055-.067.074-.146.095-.196.085-.071-.018-.093-.107-.089-.229l.013-2.233c-2.655-.733-2.498-3.5-2.47-4.946.033-1.446.304-2.628 1.113-3.43 1.088-.982 3.043-1.115 3.953-1.122Zm.2 1.446a.166.166 0 1 0 0 .332 3.136 3.136 0 0 1 2.242.883c.606.588.9 1.378.912 2.411 0 .092.074.167.167.167V7.51a.167.167 0 0 0 .168-.165 3.588 3.588 0 0 0-1.009-2.646c-.66-.645-1.496-.977-2.48-.977Zm-2.198.382a.523.523 0 0 0-.342.067H5.69a2.61 2.61 0 0 0-.637.523 1.003 1.003 0 0 0-.256.525.71.71 0 0 0 .026.302l.01.006c.172.504.396.988.67 1.444a8.48 8.48 0 0 0 1.29 1.762l.015.022.024.017.015.018.017.015c.532.505 1.127.94 1.769 1.295.734.4 1.18.588 1.447.667v.004c.078.024.15.034.221.034.228-.016.444-.109.613-.262a2.53 2.53 0 0 0 .517-.638v-.004c.128-.241.085-.469-.1-.623-.37-.323-.77-.61-1.195-.857-.285-.155-.574-.061-.69.095l-.25.315c-.129.156-.361.134-.361.134l-.007.004C7.093 8.527 6.63 6.772 6.63 6.772s-.022-.239.139-.36l.312-.252c.15-.122.254-.41.094-.695a7.498 7.498 0 0 0-.856-1.194.475.475 0 0 0-.28-.167Zm2.486.495c-.221 0-.221.334.003.334A2.098 2.098 0 0 1 10 5.572 1.94 1.94 0 0 1 10.5 7a.168.168 0 0 0 .167.165l.007.009a.169.169 0 0 0 .167-.167c.015-.662-.191-1.218-.595-1.663C9.84 4.9 9.273 4.65 8.549 4.6h-.024Zm.274.898c-.228-.006-.236.335-.01.341.55.029.816.306.851.877a.166.166 0 0 0 .165.163h.007a.168.168 0 0 0 .16-.178c-.039-.744-.445-1.164-1.166-1.202H8.8Z"/></symbol><symbol viewBox="0 0 24 24" id="vk" xmlns="http://www.w3.org/2000/svg"><path d="M13.079 18.946s.397-.046.6-.272c.187-.207.18-.598.18-.598s-.024-1.828.794-2.097c.808-.265 1.844 1.767 2.943 2.548.83.59 1.462.461 1.462.461l2.938-.042s1.536-.099.808-1.35c-.06-.102-.425-.925-2.184-2.617-1.844-1.77-1.596-1.485.622-4.549 1.352-1.865 1.892-3.004 1.723-3.491-.16-.467-1.154-.343-1.154-.343l-3.309.021s-.244-.034-.427.078c-.178.11-.293.368-.293.368s-.523 1.443-1.22 2.671c-1.474 2.59-2.063 2.727-2.304 2.567-.56-.376-.42-1.507-.42-2.31 0-2.512.368-3.558-.716-3.828-.36-.09-.624-.15-1.544-.16-1.181-.013-2.179.004-2.745.29-.376.192-.667.617-.49.641.218.03.714.138.977.508.339.479.327 1.551.327 1.551s.194 2.955-.455 3.322c-.446.252-1.057-.262-2.37-2.612C6.149 8.498 5.64 7.169 5.64 7.169s-.098-.25-.273-.383a1.335 1.335 0 0 0-.508-.211l-3.143.02s-.473.014-.646.227c-.153.189-.011.58-.011.58s2.46 5.963 5.248 8.968c2.556 2.755 5.457 2.575 5.457 2.575l1.314.001Z"/></symbol><symbol viewBox="0 0 16 16" id="whatsapp" xmlns="http://www.w3.org/2000/svg"><path fill-rule="evenodd" clip-rule="evenodd" d="M12.269 3.755A5.947 5.947 0 0 0 8.035 2 5.994 5.994 0 0 0 2.05 7.985a5.98 5.98 0 0 0 .799 2.992L2 14.077l3.173-.832c.877.477 1.86.728 2.86.728h.002a5.993 5.993 0 0 0 5.533-8.276 5.953 5.953 0 0 0-1.3-1.942Zm-4.234 9.208h-.002c-.89 0-1.765-.24-2.532-.694l-.181-.108-1.883.494.502-1.835-.118-.188a4.965 4.965 0 0 1-.76-2.647 4.982 4.982 0 0 1 6.88-4.597c.604.25 1.152.618 1.613 1.081a4.946 4.946 0 0 1 1.455 3.52 4.982 4.982 0 0 1-4.974 4.974Zm2.729-3.726c-.15-.075-.885-.436-1.022-.486-.137-.05-.236-.075-.336.074-.1.15-.387.486-.474.586-.087.1-.175.112-.324.038-.15-.075-.631-.233-1.203-.742a4.505 4.505 0 0 1-.832-1.036c-.087-.15-.009-.231.066-.306.068-.066.15-.174.224-.262.075-.087.1-.149.15-.249.05-.1.025-.187-.013-.262-.037-.075-.337-.811-.461-1.11-.121-.29-.244-.252-.336-.256a6.418 6.418 0 0 0-.286-.005.55.55 0 0 0-.4.186c-.137.15-.523.512-.523 1.248s.536 1.447.61 1.547c.075.1 1.055 1.61 2.555 2.258.358.154.636.246.853.315.358.114.684.098.942.06.287-.043.885-.362 1.01-.711.124-.35.124-.649.087-.711-.038-.063-.138-.101-.287-.176Z"/></symbol><symbol viewBox="0 0 24 24" id="youtube" xmlns="http://www.w3.org/2000/svg"><path fill-rule="evenodd" clip-rule="evenodd" d="M21.376 4.007a3.024 3.024 0 0 1 2.122 2.147C24 8.05 24 12 24 12s0 3.952-.502 5.846a3.024 3.024 0 0 1-2.122 2.147C19.505 20.5 12 20.5 12 20.5s-7.505 0-9.377-.507a3.024 3.024 0 0 1-2.122-2.147C0 15.952 0 12 0 12s0-3.951.501-5.846a3.024 3.024 0 0 1 2.122-2.147C4.495 3.5 12 3.5 12 3.5s7.505 0 9.376.507ZM15.75 12.37l-6-3.696v7.391l6-3.695Z"/></symbol></svg>