<svg width="24" height="24" viewBox="0 0 24 24" fill="none" xmlns="http://www.w3.org/2000/svg">
<path fill-rule="evenodd" clip-rule="evenodd" d="M22 12.1071C17.5716 12.2429 15.5501 12.3572 13.9287 13.9287C12.3572 15.5501 12.25 17.5715 12.1072 22C17.5453 21.9429 21.9429 17.5452 22 12.1071ZM11.8928 22C11.7571 17.5715 11.6428 15.5501 10.0713 13.9287C8.44989 12.3572 6.42843 12.25 2 12.1071C2.0571 17.5452 6.45473 21.9429 11.8928 22ZM22 11.8928C21.9429 6.45471 17.5453 2.0571 12.1072 2C12.2429 6.42843 12.3572 8.44987 13.9287 10.0713C15.5501 11.6428 17.5716 11.75 22 11.8928ZM11.8928 2C6.45473 2.0571 2.0571 6.45471 2 11.8928C6.42843 11.7571 8.44989 11.6428 10.0713 10.0713C11.6428 8.44987 11.75 6.42843 11.8928 2Z" fill="#808080"/>
</svg>
