<svg width="24" height="24" viewBox="0 0 24 24" fill="none" xmlns="http://www.w3.org/2000/svg">
<path d="M2.34382 10.8096C7.59119 8.52337 11.0903 7.01617 12.841 6.28796C17.8398 4.20879 18.8785 3.84762 19.5555 3.83556C19.7044 3.83307 20.0374 3.86997 20.253 4.04497C20.4351 4.19273 20.4852 4.39233 20.5092 4.53243C20.5332 4.67252 20.563 4.99166 20.5393 5.24103C20.2684 8.08725 19.0963 14.9943 18.5 18.1821C18.2477 19.531 17.7508 19.9833 17.2699 20.0275C16.2246 20.1237 15.4308 19.3367 14.4184 18.6731C12.8342 17.6346 11.9392 16.9881 10.4014 15.9748C8.62424 14.8036 9.7763 14.16 10.7891 13.108C11.0542 12.8327 15.6597 8.6436 15.7489 8.26358C15.76 8.21605 15.7704 8.03889 15.6651 7.94534C15.5599 7.85179 15.4045 7.88378 15.2924 7.90922C15.1336 7.94529 12.6027 9.61807 7.69994 12.9276C6.98158 13.4209 6.3309 13.6612 5.74792 13.6486C5.10522 13.6347 3.86894 13.2852 2.94989 12.9865C1.82264 12.6201 0.926721 12.4263 1.00474 11.804C1.04537 11.4799 1.49173 11.1484 2.34382 10.8096Z" fill="#808080"/>
</svg>
