<svg width="24" height="24" viewBox="0 0 24 24" fill="none" xmlns="http://www.w3.org/2000/svg">
<path d="M13.079 18.946C13.079 18.946 13.4757 18.9003 13.6793 18.674C13.8656 18.4665 13.8594 18.0755 13.8594 18.0755C13.8594 18.0755 13.8346 16.2483 14.6535 15.9792C15.4607 15.7137 16.4968 17.7455 17.5961 18.5267C18.4267 19.1172 19.0578 18.988 19.0578 18.988L21.9956 18.946C21.9956 18.946 23.5323 18.8473 22.8042 17.596C22.7437 17.4938 22.3793 16.6705 20.6199 14.9789C18.7759 13.2082 19.0241 13.494 21.2421 10.43C22.5945 8.5651 23.1342 7.42553 22.9651 6.93881C22.8055 6.47239 21.8107 6.59639 21.8107 6.59639L18.5023 6.61747C18.5023 6.61747 18.2575 6.58265 18.0753 6.69508C17.8973 6.80461 17.7824 7.06282 17.7824 7.06282C17.7824 7.06282 17.2592 8.50563 16.5614 9.73442C15.088 12.324 14.4995 12.4611 14.2582 12.3008C13.6978 11.925 13.8374 10.7942 13.8374 9.99045C13.8374 7.47919 14.2059 6.43321 13.1224 6.16265C12.7628 6.0727 12.4981 6.01319 11.5782 6.00304C10.397 5.98998 9.39938 6.00741 8.83285 6.29321C8.45677 6.48471 8.16595 6.90976 8.34333 6.93442C8.56128 6.96489 9.05699 7.07225 9.31962 7.4422C9.65858 7.92095 9.64689 8.99306 9.64689 8.99306C9.64689 8.99306 9.84145 11.9482 9.19174 12.3145C8.74622 12.567 8.135 12.0534 6.82182 9.7025C6.14873 8.49909 5.64064 7.16872 5.64064 7.16872C5.64064 7.16872 5.54301 6.91993 5.36769 6.78646C5.15525 6.6247 4.8603 6.57466 4.8603 6.57466L1.7169 6.59569C1.7169 6.59569 1.24388 6.60948 1.07131 6.82201C0.91799 7.01061 1.05962 7.4016 1.05962 7.4016C1.05962 7.4016 3.52029 13.3649 6.30823 16.3701C8.86379 19.1251 11.7645 18.9453 11.7645 18.9453L13.079 18.946Z" fill="#808080"/>
</svg>
