<svg width="24" height="24" viewBox="0 0 24 24" fill="none" xmlns="http://www.w3.org/2000/svg">
<path fill-rule="evenodd" clip-rule="evenodd" d="M21.3764 4.00742C22.4092 4.28677 23.2224 5.10964 23.4984 6.15446C24 8.0485 24 12 24 12C24 12 24 15.9516 23.4984 17.8456C23.2224 18.8905 22.4092 19.7133 21.3764 19.9927C19.505 20.5 12 20.5 12 20.5C12 20.5 4.49496 20.5 2.62336 19.9927C1.59064 19.7133 0.77738 18.8905 0.50144 17.8456C5.72205e-08 15.9516 0 12 0 12C0 12 5.72205e-08 8.0485 0.50144 6.15446C0.77738 5.10964 1.59064 4.28677 2.62336 4.00742C4.49496 3.5 12 3.5 12 3.5C12 3.5 19.505 3.5 21.3764 4.00742ZM15.75 12.3697L9.75 8.67399V16.0653L15.75 12.3697Z" fill="#808080"/>
</svg>
